<?xml version="1.0" encoding="iso-8859-1"?>
<!-- Generator: Adobe Illustrator 19.0.0, SVG Export Plug-In . SVG Version: 6.00 Build 0)  -->
<svg version="1.1" id="Capa_1" xmlns="http://www.w3.org/2000/svg" xmlns:xlink="http://www.w3.org/1999/xlink" x="0px" y="0px"
	 viewBox="0 0 480 480" style="enable-background:new 0 0 480 480;" xml:space="preserve">
<circle style="fill:#DD1C4B;" cx="240" cy="240" r="232"/>
<path style="fill:#B21D48;" d="M469.296,204.496c0.184,3.816,0.288,7.648,0.288,11.504
	c0.103,128.13-103.683,232.083-231.813,232.187C123.207,448.279,25.728,364.733,8.288,251.504
	C14.78,379.469,123.78,477.943,251.745,471.451s226.439-115.492,219.947-243.457C471.293,220.125,470.493,212.283,469.296,204.496z"
	/>
<g>
	<path style="fill:#F6F6E7;" d="M319.672,239.88l138.216-79.736c-9.196-25.035-22.647-48.295-39.76-68.752L280,171.08V11.504
		c-26.462-4.672-53.538-4.672-80,0v159.144L62.248,90.96c-17.292,20.565-30.875,43.981-40.144,69.2l138.224,80L22.112,319.856
		c9.196,25.035,22.647,48.295,39.76,68.752L200,308.92v159.576c26.462,4.672,53.538,4.672,80,0V309.352l137.752,79.688
		c17.292-20.565,30.875-43.981,40.144-69.2L319.672,239.88z"/>
	<circle style="fill:#F6F6E7;" cx="144" cy="408" r="16"/>
	<circle style="fill:#F6F6E7;" cx="336" cy="408" r="16"/>
	<circle style="fill:#F6F6E7;" cx="432" cy="240" r="16"/>
	<circle style="fill:#F6F6E7;" cx="336" cy="72" r="16"/>
	<circle style="fill:#F6F6E7;" cx="144" cy="72" r="16"/>
	<circle style="fill:#F6F6E7;" cx="48" cy="240" r="16"/>
</g>
<path style="fill:#DD1C4B;" d="M347.48,132.52c-59.36-59.36-155.601-59.36-214.96,0s-59.36,155.601,0,214.96s155.601,59.36,214.96,0
	c0,0,0,0,0,0C406.839,288.12,406.839,191.88,347.48,132.52z M296,336.992c-53.568,30.93-122.066,12.578-152.996-40.99
	s-12.578-122.066,40.99-152.996s122.066-12.578,152.996,40.99c0.001,0.001,0.002,0.003,0.002,0.004
	C367.918,237.567,349.566,306.063,296,336.992z"/>
<path style="fill:#F6F6E7;" d="M330.512,149.488c-49.988-49.986-131.034-49.984-181.019,0.005s-49.984,131.034,0.005,181.019
	c49.987,49.984,131.028,49.984,181.015,0c49.988-49.986,49.99-131.031,0.005-181.019
	C330.515,149.491,330.514,149.49,330.512,149.488L330.512,149.488z M287.2,321.68c-45.106,26.058-102.795,10.616-128.853-34.49
	s-10.616-102.795,34.49-128.853s102.795-10.616,128.853,34.49c0.01,0.018,0.02,0.035,0.03,0.053
	C347.741,237.981,332.289,295.637,287.2,321.68z"/>
<circle style="fill:#DD1C4B;" cx="240" cy="240" r="112"/>
<path d="M240,0C107.452,0,0,107.452,0,240s107.452,240,240,240s240-107.452,240-240C479.85,107.514,372.486,0.15,240,0z
	 M286.104,20.8c45.73,9.668,87.292,33.397,118.864,67.864l-57.488,33.168c-17.592-16.095-38.563-28.048-61.376-34.984V20.8z
	 M384,240c0,79.529-64.471,144-144,144S96,319.529,96,240S160.471,96,240,96C319.491,96.093,383.907,160.509,384,240z
	 M206.128,18.56c21.199-3.245,42.755-3.407,64-0.48v64.856c-21.158-4.154-42.945-3.897-64,0.752L206.128,18.56z M190.128,21.672
	v66.4c-21.837,7.231-41.858,19.087-58.696,34.76L74.104,89.664C104.907,55.658,145.405,31.926,190.128,21.672z M63.68,102.112
	l56.232,32.528c-14.248,16.171-25.078,35.056-31.84,55.52l-56.28-32.56C39.713,137.674,50.452,118.988,63.68,102.112z M16,240
	c-0.015-22.758,3.449-45.385,10.272-67.096l57.416,33.216c-4.933,22.355-4.933,45.517,0,67.872L26.304,307.12
	C19.466,285.403,15.991,262.768,16,240z M63.336,377.448c-13.07-16.76-23.689-35.295-31.536-55.048l56.312-32.488
	c6.707,20.273,17.408,38.996,31.472,55.064L63.336,377.448z M190.128,458.328c-44.904-10.297-85.543-34.184-116.384-68.408
	l57.328-33.08c16.911,15.836,37.061,27.809,59.056,35.088V458.328z M270.128,461.92c-21.245,2.927-42.801,2.765-64-0.48v-65.128
	c21.055,4.65,42.842,4.906,64,0.752V461.92z M286.128,459.208V393.16c22.653-6.884,43.492-18.719,61.008-34.648l57.464,33.24
	c-31.524,34.245-72.933,57.82-118.472,67.448V459.208z M415.2,379.392l-56.352-32.6c14.432-16.005,25.48-34.762,32.48-55.144
	l56.24,32.536C439.474,344.039,428.573,362.631,415.2,379.392z M464,240c0.005,23.406-3.674,46.667-10.904,68.928l-57.28-33.136
	c5.593-23.566,5.593-48.114,0-71.68l57.304-33.064C460.342,193.319,464.013,216.588,464,240z M447.536,155.792l-56.264,32.464
	c-6.951-20.18-17.873-38.764-32.12-54.656l56.368-32.52C428.73,117.709,439.509,136.13,447.536,155.792L447.536,155.792z"/>
<path d="M180,136.08c-57.395,33.137-77.061,106.527-43.925,163.923s106.527,77.061,163.923,43.925s77.061-106.527,43.925-163.923
	c-0.001-0.002-0.002-0.003-0.003-0.005c-32.534-57.232-105.303-77.254-162.534-44.72C180.922,135.544,180.46,135.81,180,136.08
	L180,136.08z M266.912,139.544c55.078,14.915,87.637,71.656,72.721,126.734c-14.915,55.078-71.656,87.637-126.734,72.721
	c-55.078-14.915-87.637-71.656-72.721-126.735c12.189-45.013,53.021-76.28,99.655-76.313c9.153,0.006,18.266,1.213,27.104,3.592
	H266.912z"/>
<circle cx="144" cy="408" r="16"/>
<circle cx="336" cy="408" r="16"/>
<circle cx="432" cy="240" r="16"/>
<circle cx="336" cy="72" r="16"/>
<circle cx="144" cy="72" r="16"/>
<circle cx="48" cy="240" r="16"/>
<g>
</g>
<g>
</g>
<g>
</g>
<g>
</g>
<g>
</g>
<g>
</g>
<g>
</g>
<g>
</g>
<g>
</g>
<g>
</g>
<g>
</g>
<g>
</g>
<g>
</g>
<g>
</g>
<g>
</g>
</svg>
