<?xml version="1.0"?>
<svg xmlns="http://www.w3.org/2000/svg" xmlns:xlink="http://www.w3.org/1999/xlink" xmlns:svgjs="http://svgjs.com/svgjs" version="1.1" width="512" height="512" x="0" y="0" viewBox="0 0 64 64" style="enable-background:new 0 0 512 512" xml:space="preserve" class=""><circle r="32" cx="32" cy="32" fill="#ffffff" shape="circle"/><g transform="matrix(0.7,0,0,0.7,9.600000000000001,9.599550247192383)"><g xmlns="http://www.w3.org/2000/svg"><path d="m28 60.998c-6.012 0-10-1.806-10-2.999v-1.119c2.265 1.396 6.142 2.118 10 2.118 3.857 0 7.734-.723 9.999-2.118v1.119c0 1.193-3.988 2.999-9.999 2.999zm0-4c-6.012 0-10-1.806-10-2.999 0-1.194 3.988-3 10-3 6.011 0 9.999 1.806 9.999 3 0 1.193-3.988 2.999-9.999 2.999z" fill="#dd1c4b" data-original="#000000" style="" class=""/><path d="m51 42.999c6.011 0 9.999 1.806 9.999 3h-.001v.005c-.01 1.193-3.995 2.994-9.998 2.994-6.012 0-10-1.806-10-2.999 0-1.194 3.988-3 10-3zm0 9.999c-6.012 0-10-1.806-10-3v-1.118c2.265 1.396 6.142 2.118 10 2.118 3.857 0 7.735-.723 9.999-2.118l.001 1.119c0 1.193-3.989 2.999-10 2.999z" fill="#dd1c4b" data-original="#000000" style="" class=""/><path d="m13 11.999c6.011 0 9.999 1.806 9.999 3 0 1.193-3.988 2.999-9.999 2.999-6.012 0-10-1.806-10-2.999 0-1.194 3.988-3 10-3zm-10 5.881c2.265 1.396 6.142 2.118 10 2.118 3.857 0 7.734-.723 9.999-2.118v3.119c0 1.193-3.988 2.999-9.999 2.999-6.012 0-10-1.806-10-2.999zm0 6c2.265 1.396 6.142 2.118 10 2.118 3.857 0 7.734-.723 9.999-2.118v3.119c0 1.193-3.988 2.999-9.999 2.999-6.012 0-10-1.806-10-2.999zm0 6c2.265 1.396 6.142 2.118 10 2.118 3.857 0 7.734-.723 9.999-2.118v3.119c0 1.193-3.988 2.999-9.999 2.999-6.012 0-10-1.806-10-2.999zm0 6c2.265 1.396 6.142 2.118 10 2.118 3.857 0 7.734-.723 9.999-2.118v3.119c0 1.193-3.988 2.999-9.999 2.999-6.012 0-10-1.806-10-2.999zm10 12.118c-6.012 0-10-1.806-10-3v-3.118c2.265 1.396 6.142 2.118 10 2.118 3.857 0 7.734-.723 9.999-2.118v3.118c0 1.194-3.988 3-9.999 3z" fill="#dd1c4b" data-original="#000000" style="" class=""/><path d="m39 38.998c-6.012 0-10-1.806-10-3v-3.118c2.265 1.396 6.142 2.118 10 2.118 3.857 0 7.734-.723 9.999-2.118v3.118c0 1.194-3.988 3-9.999 3zm0-35.999c6.011 0 9.999 1.806 9.999 3 0 1.193-3.988 2.999-9.999 2.999-6.012 0-10-1.806-10-2.999 0-1.194 3.988-3 10-3zm-10 5.881c2.265 1.396 6.142 2.118 10 2.118 3.857 0 7.734-.723 9.999-2.118v3.119c0 1.193-3.988 2.999-9.999 2.999-6.012 0-10-1.806-10-2.999zm0 6c2.265 1.396 6.142 2.118 10 2.118 3.857 0 7.734-.723 9.999-2.118v3.119c0 1.193-3.988 2.999-9.999 2.999-6.012 0-10-1.806-10-2.999zm0 6c2.265 1.396 6.142 2.118 10 2.118 3.857 0 7.734-.723 9.999-2.118v3.119c0 1.193-3.988 2.999-9.999 2.999-6.012 0-10-1.806-10-2.999zm0 6c2.265 1.396 6.142 2.118 10 2.118 3.857 0 7.734-.723 9.999-2.118v3.119c0 1.193-3.988 2.999-9.999 2.999-6.012 0-10-1.806-10-2.999z" fill="#dd1c4b" data-original="#000000" style="" class=""/></g></g></svg>
